<?xml version='1.0' encoding='utf-8'?>
<!DOCTYPE score-partwise PUBLIC "-//Recordare//DTD MusicXML 3.0 Partwise//EN" "http://www.musicxml.org/dtds/partwise.dtd">
<score-partwise>
<movement-title>Amazing Grace</movement-title>
<identification>
<creator type="composer">John Newton</creator>
<encoding>
<encoder>abc2xml version 63</encoder>
<encoding-date>2024-01-27</encoding-date>
</encoding>
</identification>
<credit page="1">
<credit-type>source</credit-type>
<credit-words>Soodlum's Irish Tin Whistle Book, John C. Campbell Folk School Song Book</credit-words>
</credit>
<part-list>
<score-part id="P1">
<part-name/>
</score-part>
</part-list>
<part id="P1">
<measure number="1">
<attributes>
<divisions>120</divisions>
<key>
<fifths>1</fifths>
<mode>major</mode>
</key>
<time>
<beats>3</beats>
<beat-type>4</beat-type>
</time>
</attributes>
<note>
<pitch>
<step>D</step>
<octave>4</octave>
</pitch>
<duration>120</duration>
<voice>1</voice>
<type>quarter</type>
<lyric number="1">
<syllabic>begin</syllabic>
<text>1. A</text>
</lyric>
</note>
</measure>
<measure number="2">
<note>
<pitch>
<step>G</step>
<octave>4</octave>
</pitch>
<duration>240</duration>
<voice>1</voice>
<type>half</type>
<lyric number="1">
<syllabic>middle</syllabic>
<text>maz</text>
</lyric>
</note>
<note>
<pitch>
<step>B</step>
<octave>4</octave>
</pitch>
<duration>40</duration>
<voice>1</voice>
<type>eighth</type>
<time-modification>
<actual-notes>3</actual-notes>
<normal-notes>2</normal-notes>
</time-modification>
<beam number="1">begin</beam>
<notations>
<tuplet bracket="yes" type="start"/>
<slur number="1" type="start"/>
</notations>
<lyric number="1">
<syllabic>end</syllabic>
<text>ing</text>
</lyric>
</note>
<note>
<pitch>
<step>A</step>
<octave>4</octave>
</pitch>
<duration>40</duration>
<voice>1</voice>
<type>eighth</type>
<time-modification>
<actual-notes>3</actual-notes>
<normal-notes>2</normal-notes>
</time-modification>
<beam number="1">continue</beam>
</note>
<note>
<pitch>
<step>G</step>
<octave>4</octave>
</pitch>
<duration>40</duration>
<voice>1</voice>
<type>eighth</type>
<time-modification>
<actual-notes>3</actual-notes>
<normal-notes>2</normal-notes>
</time-modification>
<beam number="1">end</beam>
<notations>
<tuplet type="stop"/>
<slur number="1" type="stop"/>
</notations>
</note>
</measure>
<measure number="3">
<note>
<pitch>
<step>B</step>
<octave>4</octave>
</pitch>
<duration>240</duration>
<voice>1</voice>
<type>half</type>
<lyric number="1">
<syllabic>single</syllabic>
<text>grace,</text>
</lyric>
</note>
<note>
<pitch>
<step>B</step>
<octave>4</octave>
</pitch>
<duration>60</duration>
<voice>1</voice>
<type>eighth</type>
<beam number="1">begin</beam>
<lyric number="1">
<syllabic>single</syllabic>
<text>how</text>
</lyric>
</note>
<note>
<pitch>
<step>A</step>
<octave>4</octave>
</pitch>
<duration>60</duration>
<voice>1</voice>
<type>eighth</type>
<beam number="1">end</beam>
</note>
</measure>
<measure number="4">
<note>
<pitch>
<step>G</step>
<octave>4</octave>
</pitch>
<duration>240</duration>
<voice>1</voice>
<type>half</type>
<lyric number="1">
<syllabic>single</syllabic>
<text>sweet</text>
</lyric>
</note>
<note>
<pitch>
<step>E</step>
<octave>4</octave>
</pitch>
<duration>120</duration>
<voice>1</voice>
<type>quarter</type>
<lyric number="1">
<syllabic>single</syllabic>
<text>the</text>
</lyric>
</note>
</measure>
<measure number="5">
<note>
<pitch>
<step>D</step>
<octave>4</octave>
</pitch>
<duration>240</duration>
<voice>1</voice>
<type>half</type>
<lyric number="1">
<syllabic>single</syllabic>
<text>sound</text>
</lyric>
</note>
<note>
<pitch>
<step>D</step>
<octave>4</octave>
</pitch>
<duration>120</duration>
<voice>1</voice>
<type>quarter</type>
<lyric number="1">
<syllabic>single</syllabic>
<text>That</text>
</lyric>
</note>
</measure>
<measure number="6">
<note>
<pitch>
<step>G</step>
<octave>4</octave>
</pitch>
<duration>240</duration>
<voice>1</voice>
<type>half</type>
<lyric number="1">
<syllabic>single</syllabic>
<text>saved</text>
</lyric>
</note>
<note>
<pitch>
<step>B</step>
<octave>4</octave>
</pitch>
<duration>40</duration>
<voice>1</voice>
<type>eighth</type>
<time-modification>
<actual-notes>3</actual-notes>
<normal-notes>2</normal-notes>
</time-modification>
<beam number="1">begin</beam>
<notations>
<tuplet bracket="yes" type="start"/>
<slur number="1" type="start"/>
</notations>
<lyric number="1">
<syllabic>single</syllabic>
<text>a</text>
</lyric>
</note>
<note>
<pitch>
<step>A</step>
<octave>4</octave>
</pitch>
<duration>40</duration>
<voice>1</voice>
<type>eighth</type>
<time-modification>
<actual-notes>3</actual-notes>
<normal-notes>2</normal-notes>
</time-modification>
<beam number="1">continue</beam>
</note>
<note>
<pitch>
<step>G</step>
<octave>4</octave>
</pitch>
<duration>40</duration>
<voice>1</voice>
<type>eighth</type>
<time-modification>
<actual-notes>3</actual-notes>
<normal-notes>2</normal-notes>
</time-modification>
<beam number="1">end</beam>
<notations>
<tuplet type="stop"/>
<slur number="1" type="stop"/>
</notations>
</note>
</measure>
<measure number="7">
<note>
<pitch>
<step>B</step>
<octave>4</octave>
</pitch>
<duration>240</duration>
<voice>1</voice>
<type>half</type>
<lyric number="1">
<syllabic>single</syllabic>
<text>wretch</text>
</lyric>
</note>
<note>
<pitch>
<step>A</step>
<octave>4</octave>
</pitch>
<duration>60</duration>
<voice>1</voice>
<type>eighth</type>
<beam number="1">begin</beam>
<lyric number="1">
<syllabic>single</syllabic>
<text>like</text>
</lyric>
</note>
<note>
<pitch>
<step>B</step>
<octave>4</octave>
</pitch>
<duration>60</duration>
<voice>1</voice>
<type>eighth</type>
<beam number="1">end</beam>
</note>
</measure>
<measure number="8">
<note>
<pitch>
<step>D</step>
<octave>5</octave>
</pitch>
<duration>360</duration>
<voice>1</voice>
<type>half</type>
<dot/>
<notations>
<tied type="start"/>
</notations>
<lyric number="1">
<syllabic>single</syllabic>
<text>me.</text>
</lyric>
</note>
</measure>
<measure number="9">
<note>
<pitch>
<step>D</step>
<octave>5</octave>
</pitch>
<duration>240</duration>
<voice>1</voice>
<type>half</type>
<notations>
<tied type="stop"/>
</notations>
</note>
<note>
<pitch>
<step>B</step>
<octave>4</octave>
</pitch>
<duration>60</duration>
<voice>1</voice>
<type>eighth</type>
<beam number="1">begin</beam>
<lyric number="1">
<syllabic>single</syllabic>
<text>I</text>
</lyric>
</note>
<note>
<pitch>
<step>D</step>
<octave>5</octave>
</pitch>
<duration>60</duration>
<voice>1</voice>
<type>eighth</type>
<beam number="1">end</beam>
</note>
</measure>
<measure number="10">
<note>
<pitch>
<step>D</step>
<octave>5</octave>
</pitch>
<duration>240</duration>
<voice>1</voice>
<type>half</type>
<lyric number="1">
<syllabic>single</syllabic>
<text>once</text>
</lyric>
</note>
<note>
<pitch>
<step>B</step>
<octave>4</octave>
</pitch>
<duration>40</duration>
<voice>1</voice>
<type>eighth</type>
<time-modification>
<actual-notes>3</actual-notes>
<normal-notes>2</normal-notes>
</time-modification>
<beam number="1">begin</beam>
<notations>
<tuplet bracket="yes" type="start"/>
<slur number="1" type="start"/>
</notations>
<lyric number="1">
<syllabic>single</syllabic>
<text>was</text>
</lyric>
</note>
<note>
<pitch>
<step>A</step>
<octave>4</octave>
</pitch>
<duration>40</duration>
<voice>1</voice>
<type>eighth</type>
<time-modification>
<actual-notes>3</actual-notes>
<normal-notes>2</normal-notes>
</time-modification>
<beam number="1">continue</beam>
</note>
<note>
<pitch>
<step>G</step>
<octave>4</octave>
</pitch>
<duration>40</duration>
<voice>1</voice>
<type>eighth</type>
<time-modification>
<actual-notes>3</actual-notes>
<normal-notes>2</normal-notes>
</time-modification>
<beam number="1">end</beam>
<notations>
<tuplet type="stop"/>
<slur number="1" type="stop"/>
</notations>
</note>
</measure>
<measure number="11">
<note>
<pitch>
<step>B</step>
<octave>4</octave>
</pitch>
<duration>240</duration>
<voice>1</voice>
<type>half</type>
<lyric number="1">
<syllabic>single</syllabic>
<text>lost,</text>
</lyric>
</note>
<note>
<pitch>
<step>B</step>
<octave>4</octave>
</pitch>
<duration>60</duration>
<voice>1</voice>
<type>eighth</type>
<beam number="1">begin</beam>
<lyric number="1">
<syllabic>single</syllabic>
<text>but</text>
</lyric>
</note>
<note>
<pitch>
<step>A</step>
<octave>4</octave>
</pitch>
<duration>60</duration>
<voice>1</voice>
<type>eighth</type>
<beam number="1">end</beam>
</note>
</measure>
<measure number="12">
<note>
<pitch>
<step>G</step>
<octave>4</octave>
</pitch>
<duration>240</duration>
<voice>1</voice>
<type>half</type>
<lyric number="1">
<syllabic>single</syllabic>
<text>now</text>
</lyric>
</note>
<note>
<pitch>
<step>E</step>
<octave>4</octave>
</pitch>
<duration>120</duration>
<voice>1</voice>
<type>quarter</type>
<lyric number="1">
<syllabic>single</syllabic>
<text>am</text>
</lyric>
</note>
</measure>
<measure number="13">
<note>
<pitch>
<step>D</step>
<octave>4</octave>
</pitch>
<duration>240</duration>
<voice>1</voice>
<type>half</type>
<lyric number="1">
<syllabic>single</syllabic>
<text>found,</text>
</lyric>
</note>
<note>
<pitch>
<step>D</step>
<octave>4</octave>
</pitch>
<duration>120</duration>
<voice>1</voice>
<type>quarter</type>
<lyric number="1">
<syllabic>single</syllabic>
<text>Was</text>
</lyric>
</note>
</measure>
<measure number="14">
<note>
<pitch>
<step>G</step>
<octave>4</octave>
</pitch>
<duration>240</duration>
<voice>1</voice>
<type>half</type>
<lyric number="1">
<syllabic>single</syllabic>
<text>blind,</text>
</lyric>
</note>
<note>
<pitch>
<step>B</step>
<octave>4</octave>
</pitch>
<duration>40</duration>
<voice>1</voice>
<type>eighth</type>
<time-modification>
<actual-notes>3</actual-notes>
<normal-notes>2</normal-notes>
</time-modification>
<beam number="1">begin</beam>
<notations>
<tuplet bracket="yes" type="start"/>
<slur number="1" type="start"/>
</notations>
<lyric number="1">
<syllabic>single</syllabic>
<text>but</text>
</lyric>
</note>
<note>
<pitch>
<step>A</step>
<octave>4</octave>
</pitch>
<duration>40</duration>
<voice>1</voice>
<type>eighth</type>
<time-modification>
<actual-notes>3</actual-notes>
<normal-notes>2</normal-notes>
</time-modification>
<beam number="1">continue</beam>
</note>
<note>
<pitch>
<step>G</step>
<octave>4</octave>
</pitch>
<duration>40</duration>
<voice>1</voice>
<type>eighth</type>
<time-modification>
<actual-notes>3</actual-notes>
<normal-notes>2</normal-notes>
</time-modification>
<beam number="1">end</beam>
<notations>
<tuplet type="stop"/>
<slur number="1" type="stop"/>
</notations>
</note>
</measure>
<measure number="15">
<note>
<pitch>
<step>B</step>
<octave>4</octave>
</pitch>
<duration>240</duration>
<voice>1</voice>
<type>half</type>
<lyric number="1">
<syllabic>single</syllabic>
<text>now</text>
</lyric>
</note>
<note>
<pitch>
<step>B</step>
<octave>4</octave>
</pitch>
<duration>60</duration>
<voice>1</voice>
<type>eighth</type>
<beam number="1">begin</beam>
<lyric number="1">
<syllabic>single</syllabic>
<text>I</text>
</lyric>
</note>
<note>
<pitch>
<step>A</step>
<octave>4</octave>
</pitch>
<duration>60</duration>
<voice>1</voice>
<type>eighth</type>
<beam number="1">end</beam>
</note>
</measure>
<measure number="16">
<note>
<pitch>
<step>G</step>
<octave>4</octave>
</pitch>
<duration>360</duration>
<voice>1</voice>
<type>half</type>
<dot/>
<notations>
<tied type="start"/>
</notations>
<lyric number="1">
<syllabic>single</syllabic>
<text>see.</text>
</lyric>
</note>
</measure>
<measure number="17">
<note>
<pitch>
<step>G</step>
<octave>4</octave>
</pitch>
<duration>240</duration>
<voice>1</voice>
<type>half</type>
<notations>
<tied type="stop"/>
</notations>
</note>
<barline location="right">
<bar-style>light-heavy</bar-style>
</barline>
</measure>
</part>
</score-partwise>